{"asset":{"version":"2.0","generator":"THREE.GLTFExporter"},"scenes":[{"name":"AuxScene","nodes":[0]}],"scene":0,"nodes":[{"mesh":0}],"bufferViews":[{"buffer":0,"byteOffset":0,"byteLength":1836,"target":34962,"byteStride":12},{"buffer":0,"byteOffset":1836,"byteLength":1836,"target":34962,"byteStride":12}],"buffers":[{"byteLength":3672,"uri":"data:application/octet-stream;base64,"}],"accessors":[{"bufferView":0,"componentType":5126,"count":153,"max":[11.372230529785156,12.199999809265137,14.87985610961914],"min":[-11.427770614624023,0.4000000059604645,-36.42014694213867],"type":"VEC3"},{"bufferView":1,"componentType":5126,"count":153,"max":[0,1,0],"min":[0,1,0],"type":"VEC3"}],"materials":[{"pbrMetallicRoughness":{"baseColorFactor":[0.5019607843137255,0.5019607843137255,0.5019607843137255,1],"metallicFactor":0,"roughnessFactor":1}}],"meshes":[{"primitives":[{"mode":4,"attributes":{"POSITION":0,"NORMAL":1},"material":0}]}]}